PathFileType	4	(X/Y/Z)	E:\Qualisys_Data\Carbon_Farble_Plate\Data\Amateur_Runner\S14\T2\S14T2V22_c3d.trc
DataRate	CameraRate	NumFrames	NumMarkers	Units	OrigDataRate	OrigDataStartFrame	OrigNumFrames
200.000000	200.000000	4	39	mm	200.000000	79	316
Frame#	Time	LSHO			RSHO			LICST			RICST			LASIS			LHEEL			RASIS			LTROC			RTROC			SACR			LTH1			LSK4			LTH2			LTH3			RHM5			LSK2			LTH4			RTH1			LTOE			RTH2			RTH3			RTH4			LLEP			RLEP			LSK1			LSK3			RSK1			LHM5			RSK2			LFT1			RSK3			RSK4			LLME			RLME			RTOE			RHEEL			RFT1			RFT2			LFT2			
		X1	Y1	Z1	X2	Y2	Z2	X3	Y3	Z3	X4	Y4	Z4	X5	Y5	Z5	X6	Y6	Z6	X7	Y7	Z7	X8	Y8	Z8	X9	Y9	Z9	X10	Y10	Z10	X11	Y11	Z11	X12	Y12	Z12	X13	Y13	Z13	X14	Y14	Z14	X15	Y15	Z15	X16	Y16	Z16	X17	Y17	Z17	X18	Y18	Z18	X19	Y19	Z19	X20	Y20	Z20	X21	Y21	Z21	X22	Y22	Z22	X23	Y23	Z23	X24	Y24	Z24	X25	Y25	Z25	X26	Y26	Z26	X27	Y27	Z27	X28	Y28	Z28	X29	Y29	Z29	X30	Y30	Z30	X31	Y31	Z31	X32	Y32	Z32	X33	Y33	Z33	X34	Y34	Z34	X35	Y35	Z35	X36	Y36	Z36	X37	Y37	Z37	X38	Y38	Z38	X39	Y39	Z39	

80	0.395	-1863.907104492188	1482.620361328125	-495.0307922363281	-1763.718872070312	1467.707885742188	-212.1626892089844	-1886.379272460938	1025.806518554688	-458.4888610839844	-1838.882080078125	1023.395751953125	-187.5232086181641	-1844.9189453125	972.94970703125	-435.0880432128906	-1703.076293945312	127.560546875	-349.6308898925781	-1824.956176757812	975.3151245117188	-206.0609893798828	-1965.355224609375	912.8088989257812	-478.8830871582031	-1990.767822265625	935.6072998046876	-143.9483337402344	-2000.433349609375	1039.470458984375	-317.04443359375	-1798.4072265625	713.6630859375	-476.6802978515625	-1747.414184570312	347.1526794433594	-428.3903198242188	-1862.801025390625	679.9552612304688	-447.9051818847656	-1741.4423828125	636.2633666992188	-447.6426086425781	-2541.505859375	270.5780334472656	-176.1514739990234	-1767.311401367188	444.4224853515625	-442.6742553710938	-1810.848266601562	599.8600463867188	-429.6464233398438	-1980.557495117188	693.8883666992188	-154.0227203369141	-1461.664794921875	221.8923492431641	-383.5443420410156	-2046.61328125	734.516845703125	-142.1214752197266	-2028.9970703125	609.5840454101562	-177.3009948730469	-2100.846923828125	651.4030151367188	-162.1806182861328	-1742.791748046875	550.6387939453125	-441.2605895996094	-2128.063232421875	580.940673828125	-170.5566253662109	-1687.09130859375	461.0807495117188	-438.5283813476562	-1668.00146484375	361.3692626953125	-428.5800476074219	-2219.61181640625	497.2555236816406	-168.2048034667969	-1515.2939453125	171.2600860595703	-442.1991882324219	-2265.541015625	569.7843627929688	-170.3895416259766	-1679.8212890625	105.6642456054688	-327.9328918457031	-2309.072265625	447.0676574707031	-180.1352691650391	-2344.98974609375	517.8921508789062	-185.3378753662109	-1658.854614257812	177.5850830078125	-411.3264770507812	-2478.802734375	402.3025817871094	-202.1430358886719	-2516.068603515625	189.2370452880859	-229.1713256835938	-2493.52099609375	449.6214599609375	-261.9814147949219	-2519.784912109375	431.0169372558594	-294.7346801757812	-2525.422119140625	449.9505310058594	-240.4853515625	-1686.740844726562	98.73342895507812	-383.042236328125
81	0.4	-1842.657104492188	1480.0751953125	-496.5321044921875	-1741.14892578125	1466.100830078125	-213.8889007568359	-1864.34130859375	1023.367553710938	-458.1714172363281	-1816.563110351562	1021.815368652344	-187.3890380859375	-1822.380859375	971.3873291015624	-434.6009216308594	-1672.76025390625	124.4122772216797	-347.41357421875	-1802.291137695312	973.5161743164062	-205.8475799560547	-1943.391479492188	911.1572265625	-478.3708801269531	-1967.250122070312	934.2859497070312	-142.9542541503906	-1978.111328125	1037.600219726562	-316.67919921875	-1779.559814453125	708.1691284179688	-477.0701904296875	-1724.2451171875	342.7466125488281	-426.7596130371094	-1845.42431640625	676.2047119140625	-447.3828430175781	-1723.596435546875	631.28955078125	-447.7302551269531	-2523.408447265625	276.9825134277344	-176.7027740478516	-1745.672119140625	439.4357604980469	-441.3137512207031	-1793.398315429688	595.7575073242188	-428.4981079101562	-1957.045166015625	691.8838500976562	-154.6950531005859	-1434.984375	224.5518341064453	-385.7867431640625	-2023.662719726562	733.189208984375	-141.7520141601562	-2005.517822265625	608.1890869140625	-177.5077209472656	-2077.819580078125	650.1934204101562	-162.3212738037109	-1723.925048828125	546.4542846679688	-441.1581726074219	-2103.81591796875	579.422119140625	-170.3713989257812	-1665.90283203125	457.7003173828125	-438.0965270996094	-1644.240844726562	358.5351867675781	-428.1905212402344	-2198.422119140625	497.1733093261719	-168.9437713623047	-1488.2529296875	172.4025726318359	-443.3209533691406	-2242.632568359375	570.4212646484375	-170.3439025878906	-1650.540893554688	103.2186965942383	-327.4711608886719	-2288.751953125	448.7122192382812	-180.9692687988281	-2322.90087890625	519.7821655273438	-185.0511474609375	-1631.22998046875	174.9778442382812	-411.0147399902344	-2458.729248046875	406.9085693359375	-203.7662353515625	-2499.10791015625	194.1172027587891	-228.3046112060547	-2472.904052734375	453.7692565917969	-263.5095825195312	-2498.65771484375	435.0816650390625	-296.2537841796875	-2504.170166015625	454.7734069824219	-242.4055328369141	-1656.986572265625	95.98517608642578	-381.7794189453125
82	0.405	-1820.583374023438	1477.6259765625	-497.5103149414062	-1718.985961914062	1464.357299804688	-214.9600067138672	-1841.450439453125	1021.332458496094	-458.3845520019531	-1794.282470703125	1020.056030273438	-187.2777404785156	-1799.975219726562	968.9132080078124	-434.6571960449219	-1645.525756835938	120.8777160644531	-345.7824401855469	-1780.072265625	971.9898071289062	-205.8165435791016	-1921.214721679688	908.7593383789062	-477.9929504394531	-1944.095458984375	932.5623779296876	-141.7210083007812	-1955.67724609375	1035.717407226562	-316.654541015625	-1762.002807617188	703.6224975585938	-478.5111999511719	-1700.919677734375	338.5871276855469	-425.4337768554688	-1827.704833984375	672.2559204101562	-447.1383056640625	-1706.415161132812	625.4656982421875	-449.3543090820312	-2504.431396484375	282.4136657714844	-176.9158630371094	-1725.1064453125	435.2302856445312	-440.385986328125	-1775.669921875	591.036865234375	-427.4700317382812	-1933.721435546875	690.366943359375	-154.6800231933594	-1409.53515625	225.8329467773438	-387.6609802246094	-1999.482543945312	730.6358642578125	-141.475830078125	-1981.519653320312	606.29052734375	-177.2744293212891	-2054.00048828125	647.428466796875	-162.1320190429688	-1705.4072265625	542.7318725585938	-441.0202941894531	-2081.009521484375	577.2989501953125	-170.24267578125	-1644.894409179688	454.6386108398438	-438.1307373046875	-1622.3330078125	356.407958984375	-428.1810302734375	-2175.1220703125	496.5614318847656	-168.5801239013672	-1462.705200195312	172.2216949462891	-443.9436950683594	-2219.00927734375	570.8298950195312	-170.8367156982422	-1623.04833984375	100.6560440063477	-325.5731201171875	-2267.651611328125	449.7531127929688	-181.3302764892578	-2300.7490234375	521.7284545898438	-185.8793334960938	-1605.807861328125	172.9810333251953	-409.8242492675781	-2437.695068359375	411.0886535644531	-204.6056823730469	-2481.0341796875	198.4893188476562	-227.2685699462891	-2451.1259765625	457.2361145019531	-265.4501342773438	-2477.337646484375	438.8901977539062	-298.24267578125	-2482.807861328125	459.0332336425781	-244.3599243164062	-1629.788208007812	92.87001037597656	-379.8030700683594
83	0.41	-1798.823486328125	1474.554565429688	-498.7082824707031	-1697.331787109375	1462.347412109375	-216.3091735839844	-1820.831787109375	1019.140991210938	-458.0236206054688	-1772.220825195312	1018.413635253906	-187.704833984375	-1777.754028320312	966.950927734375	-434.5843200683594	-1619.477416992188	118.0322113037109	-343.0115966796875	-1757.88916015625	970.7359008789062	-206.1195678710938	-1898.628662109375	906.2711181640624	-477.3336486816406	-1921.676147460938	931.0023193359376	-141.0032348632812	-1933.53955078125	1032.820190429688	-315.7755432128906	-1743.788208007812	698.5256958007812	-479.5240783691406	-1679.086669921875	334.7210388183594	-424.2857360839844	-1808.548461914062	668.4197998046875	-445.2195129394531	-1688.04345703125	620.6559448242188	-449.6531372070312	-2484.46044921875	287.4295349121094	-176.7737731933594	-1703.194458007812	430.239013671875	-437.8374938964844	-1757.517211914062	586.7029418945312	-426.0779418945312	-1909.653442382812	687.9277954101562	-154.8556976318359	-1385.62255859375	226.3222961425781	-389.4223327636719	-1976.89892578125	728.0213623046875	-141.8948364257812	-1958.401489257812	603.0516357421875	-177.1392364501953	-2030.24560546875	644.4906616210938	-162.0778350830078	-1686.955932617188	538.119140625	-441.0528564453125	-2055.638427734375	575.1608276367188	-169.7911224365234	-1624.520629882812	451.4280700683594	-437.4849243164062	-1600.089111328125	353.5861206054688	-427.2635498046875	-2153.36376953125	494.8570556640625	-168.7776031494141	-1439.37646484375	172.2521514892578	-445.7962951660156	-2194.654052734375	570.3074951171875	-171.0292663574219	-1596.007934570312	97.3926239013672	-323.266357421875	-2244.6376953125	449.8668518066406	-181.6240539550781	-2277.145751953125	522.4014892578125	-186.5432281494141	-1581.628662109375	169.8561859130859	-408.054443359375	-2416.609375	414.6455993652344	-205.5560913085938	-2461.89404296875	202.7548980712891	-227.1443481445312	-2428.81884765625	461.4265441894531	-266.7953491210938	-2455.654052734375	442.5941162109375	-299.4223327636719	-2460.656005859375	462.9903869628906	-245.3903961181641	-1603.706665039062	90.04558563232422	-376.9452514648438
